<?xml version="1.0" encoding="UTF-8"?>
<!DOCTYPE svg PUBLIC "-//W3C//DTD SVG 1.1//EN" "http://www.w3.org/Graphics/SVG/1.1/DTD/svg11.dtd">
<svg xmlns="http://www.w3.org/2000/svg" xml:space="preserve" width="3.41333in" height="1.70666in" version="1.1" style="shape-rendering:geometricPrecision; text-rendering:geometricPrecision; image-rendering:optimizeQuality; fill-rule:evenodd; clip-rule:evenodd"
viewBox="0 0 3413.33 1706.66"
 xmlns:xlink="http://www.w3.org/1999/xlink">
 <defs>
  <style type="text/css">
   <![CDATA[
    .fil0 {fill:black;fill-rule:nonzero}
   ]]>
  </style>
 </defs>
 <g id="Layer_x0020_1">
  <metadata id="CorelCorpID_0Corel-Layer"/>
  <path class="fil0" d="M24.39 507.05l0 -298.33 59.17 0 70.56 211.18c6.53,19.65 11.25,34.37 14.24,44.17 3.4,-10.83 8.75,-26.81 15.97,-47.85l71.8 -207.5 52.85 0 0 298.33 -37.91 0 0 -249.58 -87.08 249.58 -35.56 0 -86.11 -254.17 0 254.17 -37.92 0zm484.58 -27.08c-13.61,11.6 -26.74,19.72 -39.3,24.51 -12.57,4.79 -26.04,7.15 -40.49,7.15 -23.75,0 -42.01,-5.76 -54.79,-17.36 -12.78,-11.53 -19.17,-26.32 -19.17,-44.3 0,-10.56 2.43,-20.21 7.22,-28.96 4.86,-8.75 11.18,-15.69 18.96,-20.97 7.85,-5.28 16.6,-9.31 26.39,-12.02 7.22,-1.87 18.12,-3.68 32.64,-5.48 29.58,-3.47 51.46,-7.71 65.42,-12.57 0.14,-5 0.21,-8.19 0.21,-9.52 0,-14.86 -3.47,-25.35 -10.42,-31.46 -9.38,-8.26 -23.33,-12.36 -41.81,-12.36 -17.29,0 -30.07,3.06 -38.26,9.1 -8.26,6.04 -14.3,16.74 -18.26,32.15l-35.83 -5c3.27,-15.35 8.61,-27.78 16.11,-37.22 7.5,-9.44 18.33,-16.67 32.5,-21.8 14.09,-5.07 30.56,-7.64 49.17,-7.64 18.47,0 33.54,2.15 45.14,6.53 11.53,4.37 20.07,9.79 25.49,16.39 5.41,6.6 9.24,14.93 11.46,25 1.18,6.25 1.81,17.5 1.81,33.68l0 48.61c0,33.96 0.76,55.42 2.29,64.52 1.46,9.09 4.51,17.78 8.96,26.11l-38.33 0c-3.68,-7.71 -6.04,-16.74 -7.09,-27.08zm-2.91 -81.25c-13.33,5.42 -33.33,10 -60,13.75 -15.14,2.15 -25.83,4.58 -32.09,7.29 -6.25,2.71 -11.04,6.67 -14.44,11.81 -3.41,5.21 -5.14,10.97 -5.14,17.36 0,9.65 3.68,17.78 11.11,24.24 7.43,6.46 18.26,9.72 32.5,9.72 14.1,0 26.67,-3.06 37.71,-9.24 10.97,-6.11 19.1,-14.52 24.24,-25.14 3.96,-8.26 5.91,-20.41 5.91,-36.46l0.21 -13.33zm68.4 108.33l78.96 -112.01 -73.12 -104.24 45.07 0 34.17 51.04c6.32,9.58 11.32,17.36 14.86,23.47 6.18,-8.68 11.67,-16.53 16.6,-23.54l35.97 -50.97 44.79 0 -73.54 104.24 78.33 112.01 -44.58 0 -44.72 -66.67 -10.2 -16.04 -57.78 82.71 -44.79 0zm355.34 0l0 -298.33 39.59 0 0 122.91 154.17 0 0 -122.91 39.58 0 0 298.33 -39.58 0 0 -140.42 -154.17 0 0 140.42 -39.59 0zm442.15 -70l37.92 5c-5.91,22.02 -16.94,39.17 -33.06,51.32 -16.11,12.15 -36.67,18.26 -61.74,18.26 -31.53,0 -56.53,-9.72 -75,-29.17 -18.47,-19.37 -27.71,-46.67 -27.71,-81.74 0,-36.25 9.3,-64.44 27.98,-84.44 18.68,-20.07 42.92,-30.07 72.71,-30.07 28.82,0 52.36,9.79 70.63,29.44 18.26,19.65 27.43,47.29 27.43,82.92 0,2.15 -0.07,5.42 -0.21,9.72l-161.04 0c1.39,23.68 8.06,41.87 20.14,54.44 12.02,12.57 27.08,18.89 45.07,18.89 13.4,0 24.86,-3.54 34.3,-10.63 9.52,-7.08 17.02,-18.4 22.57,-33.96zm-120 -58.75l120.42 0c-1.6,-18.2 -6.25,-31.81 -13.82,-40.91 -11.6,-14.09 -26.74,-21.18 -45.28,-21.18 -16.81,0 -30.9,5.63 -42.36,16.88 -11.39,11.25 -17.71,26.32 -18.96,45.21zm204.24 128.75l0 -216.25 32.92 0 0 30.69c15.83,-23.54 38.75,-35.28 68.68,-35.28 13.06,0 25,2.36 35.9,7.01 10.9,4.65 19.1,10.83 24.51,18.4 5.42,7.57 9.24,16.6 11.39,27.02 1.32,6.8 2.02,18.68 2.02,35.63l0 132.78 -36.67 0 0 -131.39c0,-14.93 -1.39,-26.11 -4.24,-33.47 -2.85,-7.36 -7.91,-13.26 -15.14,-17.7 -7.22,-4.38 -15.76,-6.6 -25.48,-6.6 -15.56,0 -28.96,4.93 -40.28,14.86 -11.32,9.86 -16.94,28.68 -16.94,56.32l0 117.98 -36.67 0zm231.87 0l0 -298.33 36.67 0 0 169.93 86.67 -87.85 47.36 0 -82.5 80.35 90.83 135.9 -45.14 0 -71.81 -110.48 -25.41 24.72 0 85.76 -36.67 0zm355.69 -70l37.92 5c-5.91,22.02 -16.94,39.17 -33.06,51.32 -16.11,12.15 -36.67,18.26 -61.74,18.26 -31.53,0 -56.53,-9.72 -75,-29.17 -18.47,-19.37 -27.71,-46.67 -27.71,-81.74 0,-36.25 9.3,-64.44 27.98,-84.44 18.68,-20.07 42.92,-30.07 72.71,-30.07 28.82,0 52.36,9.79 70.63,29.44 18.26,19.65 27.43,47.29 27.43,82.92 0,2.15 -0.07,5.42 -0.21,9.72l-161.04 0c1.39,23.68 8.06,41.87 20.14,54.44 12.02,12.57 27.08,18.89 45.07,18.89 13.4,0 24.86,-3.54 34.3,-10.63 9.52,-7.08 17.02,-18.4 22.57,-33.96zm-120 -58.75l120.42 0c-1.6,-18.2 -6.25,-31.81 -13.82,-40.91 -11.6,-14.09 -26.74,-21.18 -45.28,-21.18 -16.81,0 -30.9,5.63 -42.36,16.88 -11.39,11.25 -17.71,26.32 -18.96,45.21zm203.4 128.75l0 -298.33 36.67 0 0 298.33 -36.67 0zm-2101.94 465.48l0 -298.33 102.78 0c23.19,0 40.9,1.39 53.12,4.24 17.08,3.96 31.67,11.11 43.75,21.39 15.76,13.33 27.5,30.28 35.28,50.97 7.85,20.7 11.74,44.37 11.74,70.97 0,22.64 -2.64,42.71 -7.92,60.21 -5.28,17.5 -12.08,32.01 -20.35,43.47 -8.33,11.46 -17.36,20.48 -27.22,27.01 -9.79,6.6 -21.67,11.6 -35.56,15 -13.96,3.41 -29.93,5.07 -47.99,5.07l-107.64 0zm39.58 -35l63.61 0c19.65,0 35.07,-1.81 46.25,-5.48 11.18,-3.68 20.07,-8.82 26.74,-15.49 9.3,-9.37 16.6,-22.01 21.8,-37.85 5.21,-15.83 7.85,-35 7.85,-57.57 0,-31.25 -5.14,-55.28 -15.35,-72.08 -10.2,-16.8 -22.64,-28.06 -37.29,-33.75 -10.56,-4.1 -27.57,-6.11 -51.04,-6.11l-62.57 0 0 228.33zm242.98 -73.13c0,-39.93 11.11,-69.51 33.41,-88.75 18.54,-15.97 41.25,-23.96 67.98,-23.96 29.65,0 53.96,9.72 72.85,29.17 18.82,19.37 28.26,46.25 28.26,80.48 0,27.78 -4.17,49.58 -12.5,65.49 -8.33,15.9 -20.48,28.26 -36.46,37.08 -15.9,8.82 -33.33,13.19 -52.15,13.19 -30.28,0 -54.72,-9.65 -73.4,-29.03 -18.68,-19.37 -27.99,-47.29 -27.99,-83.68zm37.5 0.07c0,27.64 6.04,48.33 18.13,62.01 12.15,13.75 27.36,20.63 45.76,20.63 18.2,0 33.33,-6.87 45.49,-20.69 12.08,-13.82 18.12,-34.86 18.12,-63.13 0,-26.67 -6.11,-46.87 -18.26,-60.56 -12.15,-13.75 -27.29,-20.63 -45.35,-20.63 -18.4,0 -33.61,6.81 -45.76,20.49 -12.08,13.68 -18.13,34.3 -18.13,61.87zm207.57 108.06l0 -216.25 32.92 0 0 33.12c8.4,-15.35 16.18,-25.48 23.33,-30.35 7.15,-4.93 15,-7.36 23.54,-7.36 12.36,0 24.93,3.89 37.71,11.59l-13.06 33.82c-8.89,-5 -17.78,-7.5 -26.67,-7.5 -7.99,0 -15.14,2.43 -21.46,7.22 -6.32,4.79 -10.83,11.46 -13.54,20 -4.1,12.98 -6.11,27.22 -6.11,42.71l0 112.98 -36.67 0zm147.91 0l0 -187.92 -32.5 0 0 -28.33 32.5 0 0 -22.92c0,-14.52 1.25,-25.28 3.82,-32.29 3.54,-9.44 9.65,-17.15 18.54,-23.06 8.82,-5.91 21.25,-8.82 37.22,-8.82 10.35,0 21.74,1.25 34.24,3.68l-5.49 32.09c-7.64,-1.32 -14.79,-2.02 -21.6,-2.02 -11.11,0 -18.96,2.36 -23.61,7.08 -4.58,4.72 -6.87,13.54 -6.87,26.46l0 19.79 42.08 0 0 28.33 -41.67 0 0 187.92 -36.67 0zm92.43 -64.58l36.25 -5.83c2.02,14.52 7.71,25.63 17.02,33.41 9.3,7.7 22.36,11.59 39.03,11.59 16.87,0 29.37,-3.4 37.57,-10.28 8.13,-6.81 12.22,-14.86 12.22,-24.1 0,-8.26 -3.68,-14.79 -10.97,-19.52 -5.14,-3.26 -17.64,-7.36 -37.5,-12.43 -26.81,-6.74 -45.35,-12.57 -55.76,-17.5 -10.35,-5 -18.19,-11.8 -23.54,-20.56 -5.35,-8.68 -8.06,-18.33 -8.06,-28.89 0,-9.65 2.22,-18.54 6.6,-26.74 4.44,-8.19 10.42,-15 17.98,-20.42 5.7,-4.17 13.47,-7.7 23.26,-10.62 9.86,-2.92 20.35,-4.37 31.6,-4.37 16.94,0 31.81,2.43 44.58,7.36 12.85,4.86 22.29,11.53 28.41,19.86 6.04,8.4 10.28,19.58 12.57,33.61l-35.83 5c-1.6,-11.25 -6.32,-20.07 -14.1,-26.39 -7.78,-6.32 -18.75,-9.44 -32.99,-9.44 -16.74,0 -28.75,2.78 -35.9,8.33 -7.15,5.56 -10.76,12.08 -10.76,19.52 0,4.72 1.46,9.03 4.44,12.85 2.98,3.89 7.64,7.15 14.03,9.72 3.68,1.39 14.37,4.52 32.29,9.38 25.83,6.87 43.89,12.57 54.17,16.94 10.28,4.38 18.33,10.83 24.17,19.17 5.9,8.4 8.82,18.82 8.82,31.32 0,12.15 -3.54,23.61 -10.7,34.37 -7.15,10.76 -17.43,19.1 -30.83,25 -13.47,5.9 -28.68,8.82 -45.63,8.82 -28.06,0 -49.51,-5.83 -64.24,-17.43 -14.72,-11.67 -24.09,-28.89 -28.19,-51.74zm302.5 31.87l5 32.36c-10.28,2.15 -19.51,3.26 -27.57,3.26 -13.26,0 -23.54,-2.08 -30.9,-6.32 -7.29,-4.24 -12.43,-9.72 -15.42,-16.6 -2.98,-6.87 -4.44,-21.32 -4.44,-43.33l0 -124.58 -27.08 0 0 -28.33 27.08 0 0 -53.47 36.67 -22.02 0 75.49 36.67 0 0 28.33 -36.67 0 0 126.67c0,10.48 0.63,17.22 1.94,20.2 1.25,2.99 3.33,5.35 6.25,7.15 2.92,1.74 7.08,2.64 12.5,2.64 4.03,0 9.37,-0.49 15.97,-1.46zm35.76 32.71l0 -216.25 32.92 0 0 33.12c8.4,-15.35 16.18,-25.48 23.33,-30.35 7.15,-4.93 15,-7.36 23.54,-7.36 12.36,0 24.93,3.89 37.71,11.59l-13.06 33.82c-8.89,-5 -17.78,-7.5 -26.67,-7.5 -7.99,0 -15.14,2.43 -21.46,7.22 -6.32,4.79 -10.83,11.46 -13.54,20 -4.1,12.98 -6.11,27.22 -6.11,42.71l0 112.98 -36.67 0zm126.6 0l0 -41.67 41.67 0 0 41.67 -41.67 0zm211.11 -78.33l38.33 -2.91c2.85,18.68 9.44,32.7 19.72,42.15 10.28,9.38 22.85,14.1 37.64,14.1 17.85,0 32.78,-6.67 44.93,-19.93 12.08,-13.33 18.12,-30.97 18.12,-52.92 0,-20.9 -5.76,-37.36 -17.36,-49.44 -11.6,-12.08 -26.94,-18.13 -46.04,-18.13 -11.87,0 -22.5,2.71 -31.94,8.13 -9.37,5.42 -16.74,12.43 -22.15,21.04l-34.58 -5 28.75 -153.33 147.92 0 0 35 -118.68 0 -15.91 80.48c17.85,-12.57 36.6,-18.82 56.18,-18.82 25.97,0 47.92,9.03 65.76,27.08 17.85,18.06 26.81,41.25 26.81,69.59 0,27.01 -7.85,50.35 -23.54,70 -19.09,24.17 -45.21,36.25 -78.26,36.25 -27.08,0 -49.17,-7.64 -66.32,-22.85 -17.15,-15.21 -26.94,-35.35 -29.37,-60.49zm231.74 -0.83l36.67 -5c4.24,20.83 11.32,35.83 21.39,45 10.07,9.17 22.43,13.75 37.08,13.75 17.36,0 32.02,-5.97 43.82,-17.92 11.81,-11.94 17.71,-26.74 17.71,-44.37 0,-16.8 -5.48,-30.69 -16.53,-41.67 -10.97,-10.9 -24.93,-16.39 -41.94,-16.39 -6.94,0 -15.56,1.39 -25.9,4.1l4.1 -32.08c2.43,0.28 4.44,0.41 5.9,0.41 15.69,0 29.72,-4.09 42.29,-12.22 12.5,-8.13 18.75,-20.63 18.75,-37.5 0,-13.4 -4.59,-24.51 -13.68,-33.33 -9.1,-8.82 -20.83,-13.19 -35.21,-13.19 -14.31,0 -26.18,4.52 -35.7,13.54 -9.51,9.03 -15.62,22.57 -18.33,40.62l-36.67 -6.67c4.52,-24.58 14.65,-43.68 30.56,-57.22 15.83,-13.54 35.62,-20.28 59.23,-20.28 16.25,0 31.25,3.47 44.93,10.49 13.75,6.94 24.24,16.46 31.46,28.47 7.29,12.09 10.91,24.86 10.91,38.41 0,12.85 -3.47,24.51 -10.35,35.07 -6.94,10.56 -17.22,18.96 -30.76,25.21 17.64,4.03 31.32,12.5 41.11,25.35 9.72,12.78 14.58,28.89 14.58,48.13 0,26.04 -9.52,48.19 -28.47,66.32 -19.03,18.13 -43.06,27.15 -72.08,27.15 -26.18,0 -47.92,-7.85 -65.21,-23.47 -17.36,-15.63 -27.22,-35.83 -29.65,-60.69zm-1499.85 319.23l-36.25 2.92c-3.26,-14.37 -7.92,-24.86 -13.96,-31.39 -9.93,-10.48 -22.22,-15.69 -36.81,-15.69 -11.74,0 -22.15,3.26 -31.11,9.79 -11.53,8.4 -20.56,20.63 -27.29,36.74 -6.67,16.18 -10.14,39.17 -10.42,68.96 8.82,-13.4 19.65,-23.4 32.43,-29.86 12.78,-6.53 26.11,-9.79 40.14,-9.79 24.44,0 45.28,9.03 62.5,27.01 17.15,17.99 25.76,41.18 25.76,69.72 0,18.75 -4.03,36.11 -12.08,52.22 -8.13,16.11 -19.17,28.4 -33.33,36.94 -14.1,8.54 -30.14,12.85 -48.06,12.85 -30.49,0 -55.42,-11.25 -74.72,-33.68 -19.24,-22.43 -28.89,-59.44 -28.89,-110.97 0,-57.64 10.69,-99.58 32.01,-125.76 18.61,-22.78 43.68,-34.17 75.28,-34.17 23.47,0 42.78,6.6 57.78,19.72 15,13.12 24.03,31.25 27.02,54.44zm-150 128.75c0,12.64 2.71,24.72 8.06,36.25 5.35,11.53 12.85,20.28 22.36,26.32 9.58,6.04 19.72,9.1 30.48,9.1 15.63,0 28.96,-6.25 40,-18.75 11.04,-12.5 16.6,-29.44 16.6,-50.91 0,-20.62 -5.49,-36.87 -16.39,-48.75 -10.9,-11.87 -24.79,-17.85 -41.67,-17.85 -16.53,0 -30.63,5.97 -42.15,17.85 -11.53,11.87 -17.29,27.43 -17.29,46.74zm308.4 96.67l0 -71.25 -129.58 0 0 -33.75 136.25 -193.33 30 0 0 193.33 40.42 0 0 33.75 -40.42 0 0 71.25 -36.67 0zm0 -105l0 -134.24 -93.54 134.24 93.54 0zm116.74 -154.58l0 -35 192.92 0 0 28.33c-18.96,20.21 -37.85,47.08 -56.46,80.62 -18.68,33.54 -33.06,68.06 -43.26,103.54 -7.29,24.93 -12.01,52.36 -14.03,82.08l-37.5 0c0.42,-23.47 5,-51.87 13.82,-85.14 8.82,-33.33 21.39,-65.42 37.85,-96.32 16.46,-30.91 33.96,-56.94 52.5,-78.13l-145.83 0zm421.74 224.58l0 35 -197.5 0c-0.28,-8.82 1.18,-17.29 4.31,-25.48 5.07,-13.41 13.19,-26.67 24.37,-39.65 11.18,-12.99 27.15,-27.99 47.92,-45 32.29,-26.6 54.24,-47.64 65.69,-63.2 11.53,-15.56 17.29,-30.28 17.29,-44.17 0,-14.51 -5.21,-26.74 -15.63,-36.74 -10.41,-9.93 -24.03,-14.93 -40.76,-14.93 -17.7,0 -31.87,5.28 -42.5,15.83 -10.62,10.48 -15.97,25.07 -16.11,43.75l-37.5 -3.75c2.57,-28.06 12.29,-49.44 29.1,-64.17 16.87,-14.72 39.44,-22.08 67.85,-22.08 28.61,0 51.32,7.92 67.99,23.82 16.74,15.9 25.07,35.63 25.07,59.1 0,11.94 -2.43,23.68 -7.36,35.21 -4.86,11.59 -12.98,23.75 -24.3,36.53 -11.39,12.71 -30.21,30.28 -56.46,52.5 -22.01,18.47 -36.18,30.97 -42.43,37.57 -6.25,6.6 -11.39,13.2 -15.48,19.86l146.46 0zm39.65 -112.22c0,-35.21 3.61,-63.68 10.83,-85.21 7.29,-21.6 18.06,-38.2 32.36,-49.79 14.24,-11.6 32.22,-17.36 53.89,-17.36 15.97,0 30,3.19 42.15,9.65 12.08,6.46 22.08,15.76 29.86,27.92 7.78,12.08 13.89,26.87 18.33,44.3 4.52,17.43 6.74,40.97 6.74,70.49 0,35 -3.61,63.33 -10.76,84.86 -7.15,21.6 -17.92,38.2 -32.22,49.86 -14.24,11.67 -32.29,17.5 -54.1,17.5 -28.68,0 -51.25,-10.21 -67.64,-30.69 -19.65,-25 -29.44,-65.49 -29.44,-121.53zm37.5 0.14c0,49.1 5.69,81.74 17.15,97.85 11.46,16.18 25.62,24.24 42.43,24.24 16.81,0 30.97,-8.13 42.43,-24.31 11.46,-16.25 17.15,-48.82 17.15,-97.78 0,-49.1 -5.69,-81.74 -17.15,-97.85 -11.39,-16.18 -25.69,-24.24 -42.85,-24.24 -16.8,0 -30.28,7.15 -40.35,21.39 -12.57,18.12 -18.82,51.74 -18.82,100.69zm323.75 147.08l0 -298.33 59.17 0 70.56 211.18c6.53,19.65 11.25,34.37 14.24,44.17 3.4,-10.83 8.75,-26.81 15.97,-47.85l71.8 -207.5 52.85 0 0 298.33 -37.91 0 0 -249.58 -87.08 249.58 -35.56 0 -86.11 -254.17 0 254.17 -37.92 0zm343.33 -256.67l0 -41.67 36.67 0 0 41.67 -36.67 0zm0 256.67l0 -216.25 36.67 0 0 216.25 -36.67 0zm233.82 -79.17l35.83 5c-3.96,24.65 -13.96,43.89 -30.14,57.85 -16.18,13.96 -36.11,20.9 -59.65,20.9 -29.52,0 -53.26,-9.65 -71.18,-28.96 -17.98,-19.31 -26.94,-46.94 -26.94,-82.92 0,-23.33 3.89,-43.68 11.6,-61.18 7.71,-17.43 19.44,-30.56 35.28,-39.24 15.76,-8.75 32.91,-13.12 51.53,-13.12 23.4,0 42.64,5.9 57.5,17.78 14.93,11.87 24.51,28.75 28.68,50.56l-35.41 5.42c-3.41,-14.52 -9.38,-25.42 -18.06,-32.78 -8.61,-7.29 -19.03,-10.97 -31.25,-10.97 -18.47,0 -33.47,6.6 -45.07,19.8 -11.53,13.26 -17.29,34.09 -17.29,62.7 0,29.03 5.56,50.07 16.67,63.2 11.18,13.12 25.69,19.72 43.54,19.72 14.44,0 26.46,-4.37 36.04,-13.19 9.65,-8.75 15.76,-22.29 18.33,-40.56zm67.08 79.17l0 -298.33 36.67 0 0 107.36c17.02,-19.93 38.47,-29.86 64.44,-29.86 15.9,0 29.72,3.12 41.53,9.44 11.74,6.32 20.14,15 25.21,26.11 5.07,11.11 7.57,27.29 7.57,48.4l0 136.87 -36.67 0 0 -136.74c0,-18.26 -3.96,-31.6 -11.8,-39.93 -7.92,-8.33 -19.03,-12.5 -33.47,-12.5 -10.76,0 -20.9,2.78 -30.42,8.4 -9.51,5.63 -16.25,13.26 -20.35,22.92 -4.03,9.58 -6.04,22.85 -6.04,39.79l0 118.06 -36.67 0zm379.24 -70l37.92 5c-5.91,22.02 -16.94,39.17 -33.06,51.32 -16.11,12.15 -36.67,18.26 -61.74,18.26 -31.53,0 -56.53,-9.72 -75,-29.17 -18.47,-19.37 -27.71,-46.67 -27.71,-81.74 0,-36.25 9.3,-64.44 27.98,-84.44 18.68,-20.07 42.92,-30.07 72.71,-30.07 28.82,0 52.36,9.79 70.63,29.44 18.26,19.65 27.43,47.29 27.43,82.92 0,2.15 -0.07,5.42 -0.21,9.72l-161.04 0c1.39,23.68 8.06,41.87 20.14,54.44 12.02,12.57 27.08,18.89 45.07,18.89 13.4,0 24.86,-3.54 34.3,-10.63 9.52,-7.08 17.02,-18.4 22.57,-33.96zm-120 -58.75l120.42 0c-1.6,-18.2 -6.25,-31.81 -13.82,-40.91 -11.6,-14.09 -26.74,-21.18 -45.28,-21.18 -16.81,0 -30.9,5.63 -42.36,16.88 -11.39,11.25 -17.71,26.32 -18.96,45.21zm203.4 128.75l0 -298.33 36.67 0 0 298.33 -36.67 0zm78.82 -64.58l36.25 -5.83c2.02,14.52 7.71,25.63 17.02,33.41 9.3,7.7 22.36,11.59 39.03,11.59 16.87,0 29.37,-3.4 37.57,-10.28 8.13,-6.81 12.22,-14.86 12.22,-24.1 0,-8.26 -3.68,-14.79 -10.97,-19.52 -5.14,-3.26 -17.64,-7.36 -37.5,-12.43 -26.81,-6.74 -45.35,-12.57 -55.76,-17.5 -10.35,-5 -18.19,-11.8 -23.54,-20.56 -5.35,-8.68 -8.06,-18.33 -8.06,-28.89 0,-9.65 2.22,-18.54 6.6,-26.74 4.44,-8.19 10.42,-15 17.98,-20.42 5.7,-4.17 13.47,-7.7 23.26,-10.62 9.86,-2.92 20.35,-4.37 31.6,-4.37 16.94,0 31.81,2.43 44.58,7.36 12.85,4.86 22.29,11.53 28.41,19.86 6.04,8.4 10.28,19.58 12.57,33.61l-35.83 5c-1.6,-11.25 -6.32,-20.07 -14.1,-26.39 -7.78,-6.32 -18.75,-9.44 -32.99,-9.44 -16.74,0 -28.75,2.78 -35.9,8.33 -7.15,5.56 -10.76,12.08 -10.76,19.52 0,4.72 1.46,9.03 4.44,12.85 2.98,3.89 7.64,7.15 14.03,9.72 3.68,1.39 14.37,4.52 32.29,9.38 25.83,6.87 43.89,12.57 54.17,16.94 10.28,4.38 18.33,10.83 24.17,19.17 5.9,8.4 8.82,18.82 8.82,31.32 0,12.15 -3.54,23.61 -10.7,34.37 -7.15,10.76 -17.43,19.1 -30.83,25 -13.47,5.9 -28.68,8.82 -45.63,8.82 -28.06,0 -49.51,-5.83 -64.24,-17.43 -14.72,-11.67 -24.09,-28.89 -28.19,-51.74zm302.5 31.87l5 32.36c-10.28,2.15 -19.51,3.26 -27.57,3.26 -13.26,0 -23.54,-2.08 -30.9,-6.32 -7.29,-4.24 -12.43,-9.72 -15.42,-16.6 -2.98,-6.87 -4.44,-21.32 -4.44,-43.33l0 -124.58 -27.08 0 0 -28.33 27.08 0 0 -53.47 36.67 -22.02 0 75.49 36.67 0 0 28.33 -36.67 0 0 126.67c0,10.48 0.63,17.22 1.94,20.2 1.25,2.99 3.33,5.35 6.25,7.15 2.92,1.74 7.08,2.64 12.5,2.64 4.03,0 9.37,-0.49 15.97,-1.46zm177.43 5.63c-13.61,11.6 -26.74,19.72 -39.3,24.51 -12.57,4.79 -26.04,7.15 -40.49,7.15 -23.75,0 -42.01,-5.76 -54.79,-17.36 -12.78,-11.53 -19.17,-26.32 -19.17,-44.3 0,-10.56 2.43,-20.21 7.22,-28.96 4.86,-8.75 11.18,-15.69 18.96,-20.97 7.85,-5.28 16.6,-9.31 26.39,-12.02 7.22,-1.87 18.12,-3.68 32.64,-5.48 29.58,-3.47 51.46,-7.71 65.42,-12.57 0.14,-5 0.21,-8.19 0.21,-9.52 0,-14.86 -3.47,-25.35 -10.42,-31.46 -9.38,-8.26 -23.33,-12.36 -41.81,-12.36 -17.29,0 -30.07,3.06 -38.26,9.1 -8.26,6.04 -14.3,16.74 -18.26,32.15l-35.83 -5c3.27,-15.35 8.61,-27.78 16.11,-37.22 7.5,-9.44 18.33,-16.67 32.5,-21.8 14.09,-5.07 30.56,-7.64 49.17,-7.64 18.47,0 33.54,2.15 45.14,6.53 11.53,4.37 20.07,9.79 25.49,16.39 5.41,6.6 9.24,14.93 11.46,25 1.18,6.25 1.81,17.5 1.81,33.68l0 48.61c0,33.96 0.76,55.42 2.29,64.52 1.46,9.09 4.51,17.78 8.96,26.11l-38.33 0c-3.68,-7.71 -6.04,-16.74 -7.09,-27.08zm-2.91 -81.25c-13.33,5.42 -33.33,10 -60,13.75 -15.14,2.15 -25.83,4.58 -32.09,7.29 -6.25,2.71 -11.04,6.67 -14.44,11.81 -3.41,5.21 -5.14,10.97 -5.14,17.36 0,9.65 3.68,17.78 11.11,24.24 7.43,6.46 18.26,9.72 32.5,9.72 14.1,0 26.67,-3.06 37.71,-9.24 10.97,-6.11 19.1,-14.52 24.24,-25.14 3.96,-8.26 5.91,-20.41 5.91,-36.46l0.21 -13.33zm232.98 108.33l0 -27.43c-13.68,21.32 -33.82,32.01 -60.42,32.01 -17.22,0 -33.06,-4.72 -47.43,-14.24 -14.44,-9.44 -25.63,-22.71 -33.61,-39.65 -7.92,-17.01 -11.88,-36.53 -11.88,-58.61 0,-21.53 3.61,-41.04 10.77,-58.61 7.22,-17.5 17.98,-30.97 32.36,-40.28 14.31,-9.38 30.42,-14.03 48.13,-14.03 13.06,0 24.65,2.78 34.79,8.26 10.14,5.48 18.4,12.7 24.79,21.53l0 -107.29 36.67 0 0 298.33 -34.17 0zm-115.83 -107.85c0,27.64 5.83,48.26 17.57,61.94 11.67,13.68 25.49,20.48 41.39,20.48 16.04,0 29.65,-6.53 40.9,-19.58 11.18,-13.06 16.81,-32.98 16.81,-59.79 0,-29.44 -5.7,-51.11 -17.15,-64.93 -11.39,-13.82 -25.49,-20.7 -42.22,-20.7 -16.32,0 -29.93,6.6 -40.9,19.86 -10.9,13.26 -16.39,34.17 -16.39,62.71zm287.57 75.14l5 32.36c-10.28,2.15 -19.51,3.26 -27.57,3.26 -13.26,0 -23.54,-2.08 -30.9,-6.32 -7.29,-4.24 -12.43,-9.72 -15.42,-16.6 -2.98,-6.87 -4.44,-21.32 -4.44,-43.33l0 -124.58 -27.08 0 0 -28.33 27.08 0 0 -53.47 36.67 -22.02 0 75.49 36.67 0 0 28.33 -36.67 0 0 126.67c0,10.48 0.63,17.22 1.94,20.2 1.25,2.99 3.33,5.35 6.25,7.15 2.92,1.74 7.08,2.64 12.5,2.64 4.03,0 9.37,-0.49 15.97,-1.46z"/>
 </g>
</svg>
