<?xml version="1.0" encoding="UTF-8"?>
<!DOCTYPE svg PUBLIC "-//W3C//DTD SVG 1.1//EN" "http://www.w3.org/Graphics/SVG/1.1/DTD/svg11.dtd">
<svg width="91.418" height="11.777" viewBox="0 0 91.418 11.777" xmlns="http://www.w3.org/2000/svg"><g id="svgGroup" stroke-linecap="round" fill-rule="evenodd" font-size="9pt" stroke="#FFF" stroke-width="0.25mm" fill="none" style="stroke:#FFF;stroke-width:0.25mm;fill:none"><path d="M 25.629 3.721 L 25.934 3.979 L 25.647 7.406 Q 25.582 8.127 25.866 8.522 A 0.922 0.922 0 0 0 26.487 8.899 A 1.421 1.421 0 0 0 26.725 8.918 A 1.382 1.382 0 0 0 27.81 8.409 A 2.12 2.12 0 0 0 27.993 8.162 Q 28.349 7.605 28.478 6.727 A 6.883 6.883 0 0 0 28.541 6.059 Q 28.67 3.65 27.604 2.42 Q 26.65 1.319 24.81 1.203 A 7.089 7.089 0 0 0 24.363 1.189 A 4.478 4.478 0 0 0 21.979 1.846 A 4.595 4.595 0 0 0 20.301 3.656 A 5.405 5.405 0 0 0 20.291 3.674 Q 19.676 4.846 19.6 6.322 A 7.838 7.838 0 0 0 19.591 6.691 Q 19.591 7.963 20.022 8.985 A 4.109 4.109 0 0 0 20.834 10.244 A 3.819 3.819 0 0 0 21.51 10.805 A 3.991 3.991 0 0 0 23.231 11.418 A 5.111 5.111 0 0 0 23.854 11.455 Q 24.381 11.455 24.897 11.329 A 3.963 3.963 0 0 0 25.363 11.186 A 2.911 2.911 0 0 0 25.787 10.986 L 25.928 11.256 A 2.308 2.308 0 0 1 25.558 11.45 Q 25.375 11.527 25.16 11.588 A 4.424 4.424 0 0 1 24.958 11.64 A 5.444 5.444 0 0 1 24.273 11.755 A 4.446 4.446 0 0 1 23.83 11.777 A 5.458 5.458 0 0 1 22.587 11.642 A 4.184 4.184 0 0 1 21.311 11.118 A 3.948 3.948 0 0 1 19.843 9.465 A 4.89 4.89 0 0 1 19.731 9.22 Q 19.207 7.98 19.277 6.322 A 7.705 7.705 0 0 1 19.493 4.781 A 6.037 6.037 0 0 1 19.998 3.439 Q 20.648 2.197 21.788 1.526 A 4.871 4.871 0 0 1 23.851 0.879 A 5.983 5.983 0 0 1 24.387 0.855 Q 26.11 0.855 27.188 1.612 A 3.48 3.48 0 0 1 27.835 2.2 A 4.077 4.077 0 0 1 28.639 3.723 Q 28.934 4.727 28.875 6.059 A 5.334 5.334 0 0 1 28.735 7.129 A 4.563 4.563 0 0 1 28.553 7.717 Q 28.314 8.332 27.955 8.701 A 1.938 1.938 0 0 1 27.785 8.856 A 1.668 1.668 0 0 1 26.707 9.24 A 1.563 1.563 0 0 1 26.275 9.184 A 1.195 1.195 0 0 1 25.758 8.883 A 1.366 1.366 0 0 1 25.426 8.345 Q 25.355 8.14 25.33 7.893 A 2.92 2.92 0 0 1 24.896 8.567 A 1.93 1.93 0 0 1 23.379 9.24 A 1.359 1.359 0 0 1 22.819 9.129 Q 22.509 8.991 22.295 8.68 A 1.764 1.764 0 0 1 22.192 8.511 A 2.416 2.416 0 0 1 21.972 7.907 Q 21.855 7.394 21.896 6.728 A 6.291 6.291 0 0 1 21.908 6.568 A 5.759 5.759 0 0 1 22.094 5.548 Q 22.258 4.968 22.544 4.515 A 3.242 3.242 0 0 1 22.758 4.216 A 2.623 2.623 0 0 1 23.318 3.687 A 1.994 1.994 0 0 1 24.469 3.334 A 1.963 1.963 0 0 1 25.114 3.437 A 1.73 1.73 0 0 1 25.629 3.721 Z M 35.191 4.904 L 35.191 9.123 L 34.875 9.123 L 34.875 4.863 A 3.537 3.537 0 0 0 34.836 4.339 Q 34.747 3.77 34.456 3.442 A 1.262 1.262 0 0 0 33.923 3.094 Q 33.717 3.021 33.463 2.993 A 2.999 2.999 0 0 0 33.141 2.977 A 1.96 1.96 0 0 0 31.629 3.656 A 2.762 2.762 0 0 0 31.436 3.897 Q 31.043 4.447 30.914 5.115 L 30.914 9.123 L 30.592 9.123 L 30.592 2.783 L 30.914 2.783 L 30.914 4.283 A 3.039 3.039 0 0 1 31.291 3.616 A 2.447 2.447 0 0 1 31.834 3.088 Q 32.432 2.666 33.158 2.666 A 2.96 2.96 0 0 1 33.715 2.715 Q 34.044 2.779 34.307 2.922 A 1.707 1.707 0 0 1 34.462 3.018 Q 34.969 3.369 35.127 4.166 A 2.32 2.32 0 0 1 36.041 3.073 Q 36.674 2.666 37.459 2.666 A 2.874 2.874 0 0 1 38.042 2.721 Q 38.387 2.793 38.649 2.957 A 1.49 1.49 0 0 1 38.985 3.246 Q 39.486 3.826 39.492 4.986 L 39.492 9.123 L 39.176 9.123 L 39.176 5.01 Q 39.176 3.98 38.767 3.479 A 1.282 1.282 0 0 0 38.757 3.466 A 1.281 1.281 0 0 0 38.142 3.067 Q 37.838 2.971 37.441 2.977 Q 36.287 2.994 35.613 3.897 A 2.644 2.644 0 0 0 35.377 4.275 Q 35.214 4.597 35.191 4.904 Z M 2.877 2.783 L 2.877 4.26 A 2.804 2.804 0 0 1 3.357 3.484 A 2.524 2.524 0 0 1 3.791 3.094 Q 4.395 2.666 5.127 2.666 A 2.852 2.852 0 0 1 5.706 2.721 Q 6.049 2.792 6.308 2.956 A 1.47 1.47 0 0 1 6.642 3.243 Q 7.012 3.674 7.108 4.434 A 4.558 4.558 0 0 1 7.143 4.986 L 7.143 9.123 L 6.826 9.123 L 6.826 4.975 Q 6.82 3.968 6.42 3.478 A 1.259 1.259 0 0 0 6.41 3.466 A 1.268 1.268 0 0 0 5.828 3.081 Q 5.616 3.009 5.356 2.987 A 2.887 2.887 0 0 0 5.109 2.977 Q 4.289 2.977 3.689 3.56 Q 3.088 4.143 2.877 5.063 L 2.877 9.123 L 2.561 9.123 L 2.561 2.783 L 2.877 2.783 Z M 47.725 5.971 L 47.725 5.889 Q 47.725 4.371 48.363 3.519 Q 49.002 2.666 50.115 2.666 A 2.692 2.692 0 0 1 50.826 2.757 A 2.251 2.251 0 0 1 51.378 2.988 A 2.248 2.248 0 0 1 52.077 3.641 A 2.873 2.873 0 0 1 52.266 3.949 L 52.266 0.123 L 52.582 0.123 L 52.582 9.123 L 52.266 9.123 L 52.266 8.109 A 2.208 2.208 0 0 1 51.381 8.944 A 2.579 2.579 0 0 1 50.451 9.222 A 3.201 3.201 0 0 1 50.104 9.24 A 2.23 2.23 0 0 1 49.256 9.085 Q 48.757 8.882 48.398 8.414 A 2.59 2.59 0 0 1 48.363 8.367 A 3.03 3.03 0 0 1 47.908 7.415 Q 47.788 7.002 47.746 6.509 A 6.461 6.461 0 0 1 47.725 5.971 Z M 79.986 5.971 L 79.986 5.889 Q 79.986 4.371 80.625 3.519 Q 81.264 2.666 82.377 2.666 A 2.692 2.692 0 0 1 83.088 2.757 A 2.251 2.251 0 0 1 83.64 2.988 A 2.248 2.248 0 0 1 84.338 3.641 A 2.873 2.873 0 0 1 84.527 3.949 L 84.527 0.123 L 84.844 0.123 L 84.844 9.123 L 84.527 9.123 L 84.527 8.109 A 2.208 2.208 0 0 1 83.643 8.944 A 2.579 2.579 0 0 1 82.713 9.222 A 3.201 3.201 0 0 1 82.365 9.24 A 2.23 2.23 0 0 1 81.518 9.085 Q 81.019 8.882 80.66 8.414 A 2.59 2.59 0 0 1 80.625 8.367 A 3.03 3.03 0 0 1 80.169 7.415 Q 80.049 7.002 80.008 6.509 A 6.461 6.461 0 0 1 79.986 5.971 Z M 69.381 5.912 L 69.381 6.012 A 5.58 5.58 0 0 1 69.305 6.959 Q 69.161 7.794 68.742 8.367 A 2.111 2.111 0 0 1 68.015 9.008 Q 67.57 9.24 67.002 9.24 A 3.029 3.029 0 0 1 66.281 9.158 A 2.494 2.494 0 0 1 65.719 8.947 A 2.199 2.199 0 0 1 64.84 8.139 L 64.84 11.561 L 64.523 11.561 L 64.523 2.783 L 64.84 2.783 L 64.84 3.914 A 2.416 2.416 0 0 1 65.369 3.243 A 2.245 2.245 0 0 1 65.725 2.988 Q 66.281 2.666 66.99 2.666 Q 68.104 2.666 68.742 3.519 Q 69.381 4.371 69.381 5.912 Z M 57.99 6.094 L 57.99 5.83 Q 57.99 4.951 58.342 4.219 Q 58.693 3.486 59.309 3.076 Q 59.924 2.666 60.65 2.666 A 2.424 2.424 0 0 1 61.532 2.821 A 2.194 2.194 0 0 1 62.385 3.422 A 2.591 2.591 0 0 1 62.983 4.635 A 3.736 3.736 0 0 1 63.059 5.408 L 63.059 5.742 L 58.307 5.742 L 58.307 6.088 A 3.194 3.194 0 0 0 58.632 7.521 A 2.679 2.679 0 0 0 59.15 8.248 A 2.451 2.451 0 0 0 59.528 8.555 Q 60.1 8.93 60.768 8.93 A 3.189 3.189 0 0 0 61.255 8.894 Q 61.588 8.843 61.855 8.716 A 2.094 2.094 0 0 0 62.446 8.289 A 2.618 2.618 0 0 0 62.648 8.057 L 62.871 8.215 A 2.298 2.298 0 0 1 61.187 9.215 A 3.393 3.393 0 0 1 60.768 9.24 A 2.551 2.551 0 0 1 59.358 8.827 A 2.824 2.824 0 0 1 58.377 7.738 A 3.336 3.336 0 0 1 58.354 7.693 A 3.425 3.425 0 0 1 57.999 6.365 A 4.083 4.083 0 0 1 57.99 6.094 Z M 86.35 6.094 L 86.35 5.83 Q 86.35 4.951 86.701 4.219 Q 87.053 3.486 87.668 3.076 Q 88.283 2.666 89.01 2.666 A 2.424 2.424 0 0 1 89.892 2.821 A 2.194 2.194 0 0 1 90.744 3.422 A 2.591 2.591 0 0 1 91.342 4.635 A 3.736 3.736 0 0 1 91.418 5.408 L 91.418 5.742 L 86.666 5.742 L 86.666 6.088 A 3.194 3.194 0 0 0 86.991 7.521 A 2.679 2.679 0 0 0 87.509 8.248 A 2.451 2.451 0 0 0 87.888 8.555 Q 88.459 8.93 89.127 8.93 A 3.189 3.189 0 0 0 89.614 8.894 Q 89.948 8.843 90.214 8.716 A 2.094 2.094 0 0 0 90.805 8.289 A 2.618 2.618 0 0 0 91.008 8.057 L 91.231 8.215 A 2.298 2.298 0 0 1 89.546 9.215 A 3.393 3.393 0 0 1 89.127 9.24 A 2.551 2.551 0 0 1 87.718 8.827 A 2.824 2.824 0 0 1 86.736 7.738 A 3.336 3.336 0 0 1 86.713 7.693 A 3.425 3.425 0 0 1 86.359 6.365 A 4.083 4.083 0 0 1 86.35 6.094 Z M 9.926 9.123 L 9.609 9.123 L 9.609 3.105 L 8.508 3.105 L 8.508 2.783 L 9.609 2.783 L 9.609 1.857 A 2.869 2.869 0 0 1 9.662 1.311 Q 9.725 0.997 9.865 0.751 A 1.514 1.514 0 0 1 10.052 0.489 A 1.427 1.427 0 0 1 10.878 0.035 A 2.1 2.1 0 0 1 11.268 0 A 3.178 3.178 0 0 1 11.613 0.018 Q 11.786 0.037 11.936 0.076 A 1.772 1.772 0 0 1 12.018 0.1 L 11.971 0.404 Q 11.666 0.316 11.273 0.316 A 1.552 1.552 0 0 0 10.843 0.373 A 1.155 1.155 0 0 0 10.286 0.724 A 1.329 1.329 0 0 0 10.016 1.217 Q 9.926 1.506 9.926 1.881 L 9.926 2.783 L 11.602 2.783 L 11.602 3.105 L 9.926 3.105 L 9.926 9.123 Z M 57.416 2.73 L 57.381 3.012 L 56.971 2.977 A 2.054 2.054 0 0 0 56.26 3.096 A 1.823 1.823 0 0 0 55.617 3.501 Q 55.094 4.004 54.917 4.893 A 4.056 4.056 0 0 0 54.902 4.969 L 54.902 9.123 L 54.586 9.123 L 54.586 2.783 L 54.902 2.783 L 54.902 4.102 Q 55.16 3.439 55.676 3.053 A 1.889 1.889 0 0 1 56.445 2.716 A 2.642 2.642 0 0 1 56.971 2.666 Q 57.161 2.666 57.301 2.697 A 0.823 0.823 0 0 1 57.416 2.73 Z M 12.428 6.111 L 12.428 5.83 A 4.064 4.064 0 0 1 12.535 4.879 A 3.383 3.383 0 0 1 12.776 4.198 A 2.78 2.78 0 0 1 13.366 3.378 A 2.597 2.597 0 0 1 13.761 3.07 A 2.602 2.602 0 0 1 15.1 2.668 A 3.127 3.127 0 0 1 15.199 2.666 A 2.77 2.77 0 0 1 16.153 2.827 A 2.56 2.56 0 0 1 16.629 3.059 Q 17.262 3.451 17.616 4.172 Q 17.971 4.893 17.977 5.795 L 17.977 6.076 A 4.144 4.144 0 0 1 17.879 6.993 A 3.38 3.38 0 0 1 17.631 7.711 A 2.747 2.747 0 0 1 17.018 8.552 A 2.599 2.599 0 0 1 16.649 8.836 A 2.602 2.602 0 0 1 15.311 9.239 A 3.127 3.127 0 0 1 15.211 9.24 A 2.766 2.766 0 0 1 14.251 9.077 A 2.558 2.558 0 0 1 13.772 8.842 A 2.647 2.647 0 0 1 12.83 7.814 A 3.169 3.169 0 0 1 12.785 7.726 A 3.515 3.515 0 0 1 12.452 6.548 A 4.319 4.319 0 0 1 12.428 6.111 Z M 40.934 6.111 L 40.934 5.83 A 4.064 4.064 0 0 1 41.041 4.879 A 3.383 3.383 0 0 1 41.282 4.198 A 2.78 2.78 0 0 1 41.872 3.378 A 2.597 2.597 0 0 1 42.267 3.07 A 2.602 2.602 0 0 1 43.605 2.668 A 3.127 3.127 0 0 1 43.705 2.666 A 2.77 2.77 0 0 1 44.659 2.827 A 2.56 2.56 0 0 1 45.135 3.059 Q 45.768 3.451 46.122 4.172 Q 46.477 4.893 46.482 5.795 L 46.482 6.076 A 4.144 4.144 0 0 1 46.385 6.993 A 3.38 3.38 0 0 1 46.137 7.711 A 2.747 2.747 0 0 1 45.524 8.552 A 2.599 2.599 0 0 1 45.155 8.836 A 2.602 2.602 0 0 1 43.817 9.239 A 3.127 3.127 0 0 1 43.717 9.24 A 2.766 2.766 0 0 1 42.757 9.077 A 2.558 2.558 0 0 1 42.278 8.842 A 2.647 2.647 0 0 1 41.336 7.814 A 3.169 3.169 0 0 1 41.291 7.726 A 3.515 3.515 0 0 1 40.958 6.548 A 4.319 4.319 0 0 1 40.934 6.111 Z M 70.623 6.111 L 70.623 5.83 A 4.064 4.064 0 0 1 70.73 4.879 A 3.383 3.383 0 0 1 70.972 4.198 A 2.78 2.78 0 0 1 71.561 3.378 A 2.597 2.597 0 0 1 71.956 3.07 A 2.602 2.602 0 0 1 73.295 2.668 A 3.127 3.127 0 0 1 73.395 2.666 A 2.77 2.77 0 0 1 74.348 2.827 A 2.56 2.56 0 0 1 74.824 3.059 Q 75.457 3.451 75.812 4.172 Q 76.166 4.893 76.172 5.795 L 76.172 6.076 A 4.144 4.144 0 0 1 76.074 6.993 A 3.38 3.38 0 0 1 75.826 7.711 A 2.747 2.747 0 0 1 75.214 8.552 A 2.599 2.599 0 0 1 74.845 8.836 A 2.602 2.602 0 0 1 73.506 9.239 A 3.127 3.127 0 0 1 73.406 9.24 A 2.766 2.766 0 0 1 72.446 9.077 A 2.558 2.558 0 0 1 71.968 8.842 A 2.647 2.647 0 0 1 71.026 7.814 A 3.169 3.169 0 0 1 70.981 7.726 A 3.515 3.515 0 0 1 70.648 6.548 A 4.319 4.319 0 0 1 70.623 6.111 Z M 12.744 5.889 L 12.744 6.076 A 3.472 3.472 0 0 0 12.889 7.091 A 3.135 3.135 0 0 0 13.058 7.526 A 2.624 2.624 0 0 0 13.517 8.207 A 2.337 2.337 0 0 0 13.931 8.555 A 2.242 2.242 0 0 0 15.077 8.921 A 2.729 2.729 0 0 0 15.211 8.924 Q 16.295 8.924 16.978 8.109 A 2.856 2.856 0 0 0 17.583 6.821 A 4.051 4.051 0 0 0 17.66 6.012 L 17.66 5.83 A 3.355 3.355 0 0 0 17.455 4.652 A 3.177 3.177 0 0 0 17.344 4.389 A 2.671 2.671 0 0 0 16.886 3.709 A 2.365 2.365 0 0 0 16.468 3.355 A 2.235 2.235 0 0 0 15.221 2.983 A 2.69 2.69 0 0 0 15.199 2.982 A 2.309 2.309 0 0 0 14.243 3.176 A 2.253 2.253 0 0 0 13.43 3.809 Q 12.744 4.635 12.744 5.889 Z M 41.25 5.889 L 41.25 6.076 A 3.472 3.472 0 0 0 41.395 7.091 A 3.135 3.135 0 0 0 41.564 7.526 A 2.624 2.624 0 0 0 42.023 8.207 A 2.337 2.337 0 0 0 42.437 8.555 A 2.242 2.242 0 0 0 43.583 8.921 A 2.729 2.729 0 0 0 43.717 8.924 Q 44.801 8.924 45.483 8.109 A 2.856 2.856 0 0 0 46.089 6.821 A 4.051 4.051 0 0 0 46.166 6.012 L 46.166 5.83 A 3.355 3.355 0 0 0 45.961 4.652 A 3.177 3.177 0 0 0 45.85 4.389 A 2.671 2.671 0 0 0 45.392 3.709 A 2.365 2.365 0 0 0 44.974 3.355 A 2.235 2.235 0 0 0 43.727 2.983 A 2.69 2.69 0 0 0 43.705 2.982 A 2.309 2.309 0 0 0 42.748 3.176 A 2.253 2.253 0 0 0 41.936 3.809 Q 41.25 4.635 41.25 5.889 Z M 70.939 5.889 L 70.939 6.076 A 3.472 3.472 0 0 0 71.084 7.091 A 3.135 3.135 0 0 0 71.253 7.526 A 2.624 2.624 0 0 0 71.712 8.207 A 2.337 2.337 0 0 0 72.126 8.555 A 2.242 2.242 0 0 0 73.273 8.921 A 2.729 2.729 0 0 0 73.406 8.924 Q 74.49 8.924 75.173 8.109 A 2.856 2.856 0 0 0 75.778 6.821 A 4.051 4.051 0 0 0 75.856 6.012 L 75.856 5.83 A 3.355 3.355 0 0 0 75.651 4.652 A 3.177 3.177 0 0 0 75.539 4.389 A 2.671 2.671 0 0 0 75.081 3.709 A 2.365 2.365 0 0 0 74.663 3.355 A 2.235 2.235 0 0 0 73.417 2.983 A 2.69 2.69 0 0 0 73.395 2.982 A 2.309 2.309 0 0 0 72.438 3.176 A 2.253 2.253 0 0 0 71.625 3.809 Q 70.939 4.635 70.939 5.889 Z M 64.84 4.582 L 64.84 7.547 A 2.088 2.088 0 0 0 65.27 8.252 A 1.988 1.988 0 0 0 65.646 8.564 Q 66.205 8.924 67.008 8.924 A 1.95 1.95 0 0 0 67.714 8.801 Q 68.195 8.616 68.52 8.15 A 2.584 2.584 0 0 0 68.858 7.439 Q 68.964 7.098 69.015 6.682 A 6.666 6.666 0 0 0 69.059 5.889 A 5.604 5.604 0 0 0 69.006 5.094 Q 68.944 4.663 68.81 4.311 A 2.54 2.54 0 0 0 68.517 3.753 A 1.719 1.719 0 0 0 67.277 2.999 A 2.261 2.261 0 0 0 66.996 2.982 A 2.555 2.555 0 0 0 66.323 3.067 A 2.022 2.022 0 0 0 65.643 3.396 A 2.123 2.123 0 0 0 65.015 4.152 A 2.854 2.854 0 0 0 64.84 4.582 Z M 52.266 7.553 L 52.266 4.582 A 2.837 2.837 0 0 0 51.868 3.8 Q 51.328 3.072 50.355 2.992 A 3.009 3.009 0 0 0 50.109 2.982 A 1.967 1.967 0 0 0 49.403 3.104 Q 48.936 3.283 48.615 3.721 A 2.197 2.197 0 0 0 48.595 3.75 Q 48.21 4.295 48.098 5.207 A 6.645 6.645 0 0 0 48.053 6.012 A 5.514 5.514 0 0 0 48.113 6.853 Q 48.18 7.286 48.321 7.639 A 2.604 2.604 0 0 0 48.586 8.142 Q 49.084 8.873 49.972 8.921 A 2.343 2.343 0 0 0 50.098 8.924 A 2.957 2.957 0 0 0 50.741 8.857 A 2.209 2.209 0 0 0 51.439 8.575 A 2.013 2.013 0 0 0 52.173 7.758 A 2.558 2.558 0 0 0 52.266 7.553 Z M 84.527 7.553 L 84.527 4.582 A 2.837 2.837 0 0 0 84.13 3.8 Q 83.589 3.072 82.617 2.992 A 3.009 3.009 0 0 0 82.371 2.982 A 1.967 1.967 0 0 0 81.664 3.104 Q 81.198 3.283 80.877 3.721 A 2.197 2.197 0 0 0 80.856 3.75 Q 80.472 4.295 80.36 5.207 A 6.645 6.645 0 0 0 80.314 6.012 A 5.514 5.514 0 0 0 80.375 6.853 Q 80.442 7.286 80.583 7.639 A 2.604 2.604 0 0 0 80.848 8.142 Q 81.346 8.873 82.233 8.921 A 2.343 2.343 0 0 0 82.359 8.924 A 2.957 2.957 0 0 0 83.003 8.857 A 2.209 2.209 0 0 0 83.701 8.575 A 2.013 2.013 0 0 0 84.435 7.758 A 2.558 2.558 0 0 0 84.527 7.553 Z M 25.348 7.107 L 25.6 4.137 A 1.315 1.315 0 0 0 24.802 3.686 A 1.956 1.956 0 0 0 24.451 3.656 A 1.729 1.729 0 0 0 23.267 4.121 A 2.336 2.336 0 0 0 23.142 4.242 Q 22.576 4.828 22.342 5.859 A 6.173 6.173 0 0 0 22.226 6.55 Q 22.173 7.046 22.219 7.488 A 2.859 2.859 0 0 0 22.291 7.918 Q 22.386 8.297 22.585 8.546 Q 22.884 8.921 23.359 8.924 A 1.22 1.22 0 0 0 23.367 8.924 A 1.934 1.934 0 0 0 23.949 8.84 A 1.576 1.576 0 0 0 24.574 8.47 Q 25.049 8.016 25.348 7.107 Z M 0.481 2.783 L 0.481 9.123 L 0.164 9.123 L 0.164 2.783 L 0.481 2.783 Z M 58.324 5.426 L 62.742 5.426 L 62.742 5.35 Q 62.742 4.705 62.47 4.151 A 2.225 2.225 0 0 0 62.068 3.574 A 1.991 1.991 0 0 0 61.72 3.29 A 1.933 1.933 0 0 0 60.65 2.982 A 2.06 2.06 0 0 0 59.141 3.608 A 2.573 2.573 0 0 0 59.08 3.671 Q 58.436 4.359 58.324 5.426 Z M 86.684 5.426 L 91.102 5.426 L 91.102 5.35 Q 91.102 4.705 90.829 4.151 A 2.225 2.225 0 0 0 90.427 3.574 A 1.991 1.991 0 0 0 90.079 3.29 A 1.933 1.933 0 0 0 89.01 2.982 A 2.06 2.06 0 0 0 87.501 3.608 A 2.573 2.573 0 0 0 87.439 3.671 Q 86.795 4.359 86.684 5.426 Z M 77.654 8.605 A 0.321 0.321 0 0 0 77.561 8.836 A 0.386 0.386 0 0 0 77.561 8.84 A 0.31 0.31 0 0 0 77.654 9.064 A 0.322 0.322 0 0 0 77.738 9.125 A 0.319 0.319 0 0 0 77.883 9.158 A 0.321 0.321 0 0 0 78.114 9.064 A 0.37 0.37 0 0 0 78.12 9.059 A 0.306 0.306 0 0 0 78.211 8.836 A 0.329 0.329 0 0 0 78.196 8.735 A 0.323 0.323 0 0 0 78.114 8.605 Q 78.018 8.508 77.883 8.508 A 0.371 0.371 0 0 0 77.874 8.508 A 0.305 0.305 0 0 0 77.654 8.605 Z M 0.094 0.571 A 0.321 0.321 0 0 0 0 0.803 A 0.386 0.386 0 0 0 0 0.807 A 0.31 0.31 0 0 0 0.094 1.031 A 0.322 0.322 0 0 0 0.177 1.092 A 0.319 0.319 0 0 0 0.322 1.125 A 0.321 0.321 0 0 0 0.554 1.031 A 0.37 0.37 0 0 0 0.56 1.025 A 0.306 0.306 0 0 0 0.65 0.803 A 0.329 0.329 0 0 0 0.635 0.701 A 0.323 0.323 0 0 0 0.554 0.571 Q 0.457 0.475 0.322 0.475 A 0.371 0.371 0 0 0 0.314 0.475 A 0.305 0.305 0 0 0 0.094 0.571 Z" vector-effect="non-scaling-stroke"/></g></svg>